<?xml version="1.0" encoding="iso-8859-1"?>
<!-- Generator: Adobe Illustrator 19.0.0, SVG Export Plug-In . SVG Version: 6.00 Build 0)  -->
<svg version="1.1" id="Layer_1" xmlns="http://www.w3.org/2000/svg" xmlns:xlink="http://www.w3.org/1999/xlink" x="0px" y="0px"
	 viewBox="0 0 432.015 432.015" style="enable-background:new 0 0 432.015 432.015;" xml:space="preserve">
<g transform="translate(0 -1020.36)" shape-rendering="auto" image-rendering="auto" color-rendering="auto" color-interpolation="sRGB">
	<path style="fill:#484666;" d="M31.29,1116.39c-3.941,0.385-7.005,3.604-7.204,7.559L8.023,1443.873
		c-0.291,4.625,3.396,8.529,8.031,8.502h400.025c4.588,0,8.201-3.924,7.913-8.502l-15.944-319.926
		c-0.235-4.256-3.768-7.58-8.031-7.559c-122.892,0-245.894,0-368.728,0L31.29,1116.39z"/>
	<path style="fill:#FABD6B;" d="M39.676,1132.332h352.782l15.118,303.982H24.558L39.676,1132.332z"/>
	<path style="fill:#484666;" d="M180.1,1244.295c-24.207,0-44.053,19.85-44.053,44.051c0.015,13.773,8.329,23.521,13.464,31.295
		c17.645,26.713,61.061,66.605,61.061,66.605c3.069,2.83,7.797,2.83,10.866,0c0,0,11.789-10.539,25.628-24.445
		c13.84-13.906,29.682-30.951,38.621-45.35c4.565-7.359,10.375-16.477,10.393-28.107c0-24.201-19.846-44.051-44.054-44.051
		c-13.168,0-23.554,7.477-30.825,14.172c-3.193,2.938-3.217,3.518-5.194,5.906c-1.971-2.377-1.911-2.98-5.079-5.906
		c-10.548-9.041-20.007-14.055-30.827-14.172V1244.295z"/>
	<path style="fill:#D87070;" d="M180.1,1260.355c6.71,0,14.206,4.602,19.96,9.92c5.757,5.322,9.331,10.631,9.331,10.631
		c2.498,3.652,7.485,4.588,11.138,2.09c0.82-0.561,1.529-1.27,2.09-2.09c0,0,3.671-5.309,9.448-10.631
		c5.781-5.32,13.25-9.92,19.959-9.92c15.55,0,27.992,12.451,27.992,27.99c-0.009,6.027-3.471,12.566-7.913,19.721
		c-7.344,11.83-22.876,28.832-36.377,42.396c-10.436,10.484-15.716,15.084-19.369,18.422c-6.5-6.172-39.969-37.615-53.502-58.102
		c-5.714-8.652-10.741-15.619-10.748-22.438C152.109,1272.806,164.55,1260.355,180.1,1260.355L180.1,1260.355z"/>
	<path style="fill:#484666;" d="M160.022,1148.4c-13.16,0-23.975,10.816-23.975,23.975s10.816,23.973,23.975,23.973
		c13.16,0,24.094-10.814,24.094-23.973S173.182,1148.4,160.022,1148.4z"/>
	<path style="fill:#E1E1E6;" d="M160.022,1164.345c4.511,0,8.031,3.518,8.031,8.031c0,4.51-3.519,8.031-8.031,8.031
		c-4.511,0-7.913-3.518-7.913-8.031C152.109,1167.865,155.508,1164.345,160.022,1164.345z"/>
	<path style="fill:#484666;" d="M272.105,1148.4c-13.16,0-24.094,10.816-24.094,23.975s10.934,23.973,24.094,23.973
		s23.975-10.814,23.975-23.973S285.264,1148.4,272.105,1148.4z"/>
	<path style="fill:#E1E1E6;" d="M272.105,1164.345c4.511,0,7.913,3.518,7.913,8.031c0,4.51-3.398,8.031-7.913,8.031
		c-4.511,0-8.032-3.518-8.032-8.031C264.073,1167.865,267.593,1164.345,272.105,1164.345z"/>
	<path style="fill:#484666;" d="M214.476,1020.361c-34.38,0-62.406,28.059-62.406,62.438v81.563h16v-81.563
		c0-25.73,20.672-46.438,46.406-46.438h3.156c25.734,0,46.438,20.708,46.438,46.438v81.563h16v-81.563
		c0-34.379-28.057-62.438-62.438-62.438L214.476,1020.361L214.476,1020.361z"/>
	<path style="fill:#E0A45C;" d="M385.07,1132.343l15.125,303.969h7.375l-15.125-303.969H385.07z"/>
	<path style="fill:#BD5858;" d="M180.101,1260.343c-1.46,0-2.852,0.225-4.25,0.432c5.935,1.023,12.16,4.91,17.125,9.5
		c5.757,5.322,9.344,10.625,9.344,10.625c2.25,3.271,6.558,4.402,10.125,2.656c-1.232-0.607-2.286-1.523-3.063-2.656
		c0,0-3.556-5.305-9.313-10.625c-5.754-5.318-13.259-9.938-19.969-9.938L180.101,1260.343z M252.039,1260.343
		c-0.915,0-1.876,0.271-2.813,0.432c13.482,2.047,23.719,13.484,23.719,27.563c-0.009,6.029-3.464,12.564-7.906,19.721
		c-7.344,11.828-22.874,28.84-36.375,42.406c-8.502,8.543-12.215,11.77-15.781,15c0.73,0.688,3.001,2.961,3.469,3.404
		c3.653-3.34,8.939-7.92,19.375-18.404c13.501-13.566,29.031-30.578,36.375-42.406c4.442-7.154,7.897-13.691,7.906-19.721
		c0-15.537-12.419-28-27.969-28V1260.343z"/>
	<g>
		<path style="fill:#C4C9D3;" d="M272.101,1164.343c-0.759,0-1.435,0.225-2.125,0.4c3.389,0.928,5.781,3.871,5.781,7.625
			c0,3.752-2.391,6.699-5.781,7.625c0.69,0.191,1.367,0.4,2.125,0.4c4.515,0,7.906-3.521,7.906-8.031
			c0-4.512-3.395-8.031-7.906-8.031V1164.343z"/>
		<path style="fill:#C4C9D3;" d="M160.147,1164.343c-0.756,0-1.433,0.24-2.122,0.416c3.386,0.928,5.781,3.869,5.781,7.625
			c0,3.754-2.389,6.699-5.781,7.623c0.689,0.176,1.367,0.416,2.122,0.416c4.517,0,7.906-3.52,7.906-8.031
			c0-4.51-3.398-8.031-7.906-8.031V1164.343z"/>
	</g>
</g>
<g>
</g>
<g>
</g>
<g>
</g>
<g>
</g>
<g>
</g>
<g>
</g>
<g>
</g>
<g>
</g>
<g>
</g>
<g>
</g>
<g>
</g>
<g>
</g>
<g>
</g>
<g>
</g>
<g>
</g>
</svg>
